<?xml version="1.0" encoding="UTF-8"?>
<svg id="Layer_1" data-name="Layer 1" xmlns="http://www.w3.org/2000/svg" viewBox="0 0 1000 1000">
  <defs>
    <style>
      .cls-1 {
        fill: #c39a4d;
      }
    </style>
  </defs>
  <path class="cls-1" d="M314.28,275.19c1.89,2.14,2.18,4.11,2.17,6.87-.19,49.62-11.22,95.99-6.08,147.5,1.88,18.81,5.02,36.97,8.88,54.75,4.71-3.55,9.71-6.67,14.79-9.66,22.49-13.24,44.03-27.88,64.46-44.1.78-.62,1.53-1.25,2.26-1.91,5.08-4.62,8.71-10.37,8.01-17.98-.61-6.57.79-11.69,7.55-13.89.2-.06.36-.15.57-.21h0c.11-.03.2-.13.3-.19.23-.13.46-.27.67-.45.18-.16.35-.32.54-.44,3.59-2.2,6.87-4.76,9.97-7.51,1.03-.92,2.05-1.85,3.05-2.81,2-1.91,3.94-3.88,5.86-5.87,1.92-1.99,3.82-4,5.75-5.98,1.28-1.32,2.47-2.67,3.58-4.05,5.58-6.99,8.82-14.81,9.41-23.53h-106.6l2.31-62.01c7.83,1.41,12.32,8.59,20.5,10.49,14.14,3.27,30.66.94,43.81-4.75,3.78-1.64,15.49-10.34,17.23-10.34h210.2c4.12,21.99,5.4,44.22,4.59,66.62h-16.17c-1.75,12.61-3.81,29.48-3.83,29.42-.74,26.61,2.3,53.17,3.12,79.77.11-.17.21-.35.31-.52,1.84,28.04,9.52,55.7,22.7,80.52,2.41,4.53,5.01,8.95,7.72,13.31,12.81-45.12,25.06-90.31,27.6-139.24,2.25-43.4-4.25-87.64-7.03-130.91,23.37-25.34,34.66-51.55,14.28-83.28-17.16-26.72-33.67-17.62-47.68-28.13-4.51-3.38-10.91-19.15-19.37-26.57-20.39-17.88-45.98-22.06-72.37-19.48-9.54.93-26.76,9-32.19,9.02-5.41.02-16.98-10.39-23.25-13.35-39.46-18.67-82.35-11.26-111.07,21.59-2.34,2.68-6.8,11.75-7.41,12.11-3.08,1.8-13.52-.12-18.82.73-48.5,7.81-87,61.51-66.08,109.26,5.2,11.87,10.94,9.7,15.79,15.21Z"/>
  <path class="cls-1" d="M644.67,611.15c-2.13-3-5.7-4.11-11.03-3.75-2.93.2-5.86.6-8.79.78-1.3.08-2.25-.02-2.89-.36-.43-.22-.73-.55-.91-1-.18-.45-.24-1.02-.21-1.73.02-.36.06-.74.13-1.17.22-1.4.73-2.68,1.36-3.89.12-.24.26-.46.39-.69.54-.97,1.12-1.91,1.69-2.87,6.8-11.56,16.42-17.54,28.88-17.86,2.04-7.32,4.11-14.62,6.18-21.91-13.09-20.35-23.05-42.72-29.23-66.12-.17,1.8-.31,3.61-.52,5.41-1.52,12.92-4.26,25.61-8.89,37.67-1.11,2.87-2.27,5.73-3.6,8.52-6.5,13.71-15.95,28.21-11.8,42.81,1.69,5.93,5.49,11.01,8.12,16.59,7.24,15.4,5.07,33.37,2.75,50.23-11.9-13.18-24.52-28.18-24.28-45.94.05-3.89-1.3-9.64-5.03-8.55-1.09.32-1.88,1.25-2.61,2.12-19.08,22.86-42.68,41.87-68.94,55.89-5.79,3.09-11.66,6.02-17.69,8.6-3.07-1.92.36-6.43,3.54-8.15,3.84-2.07,7.66-4.18,11.46-6.33,10.18-5.74,20.16-11.82,29.55-18.76,30.68-22.66,54.52-54.4,68-90.07,2.02-5.35,3.82-10.78,5.37-16.28.55-1.97,1.02-3.95,1.51-5.92-2.38,2.66-4.51,4.83-5.16,5.46-10.65,10.36-23.44,5.59-39.11,5.99,12.95-10.92,23.45-21.56,37.13-20.8,1.96.11,5.91-.17,9.33-.44.88-4.44,1.65-8.89,2.27-13.37.45-3.26.84-6.53,1.16-9.81.46-4.66.8-9.34,1.03-14.03,1.63-32.69-1.91-65.98-5.52-98.65-9.94,15.76-23.55,29.17-39.41,38.94-2.23,1.37-4.49,2.67-6.8,3.89-1.18-5.58,4.48-9.8,9.38-12.91.18-.11.36-.24.54-.35,16.24-10.15,29.25-25.38,36.75-43.01,1.55-3.63,2.93-7.45,4.48-11.15.35-.83.74-1.64,1.11-2.45h-78.76c8.37,3.83,14.51,9.87,19.09,17.88,1.05,1.83,2.02,3.76,2.92,5.79.02.04.04.08.06.13,1.47,3.36,2.76,6.98,3.89,10.85.38,1.3.61,2.55.75,3.76.38,3.22,0,6.18-.93,8.94-.86,2.53-2.19,4.9-3.78,7.15-1.2,1.69-2.55,3.31-3.98,4.9-1.43,1.58-2.93,3.12-4.44,4.65-.4.4-.83.72-1.24,1.1-5.33,4.92-11.55,7.79-18.15,9.79-4.72,1.43-9.61,2.46-14.48,3.5-2.71.58-5.17.52-7.42-.09-1.47-.4-2.85-1.03-4.15-1.87-1.31-.85-2.55-1.92-3.71-3.17-.58-.63-1.15-1.3-1.7-2.02-1.48-1.93-2.9-3.88-4.28-5.87s-2.72-3.99-4.03-6.02c-1.78-2.76-3.5-5.56-5.2-8.37-.8-1.32-1.6-2.65-2.4-3.98-2.95-4.96-6.05-9.83-9.13-14.71,0,0,0,0,0,0-.56-.89-1.26-2.21-2.47-1.72-1.48.61-.88,2.1-.62,3.29.01.06.04.12.05.18.01.05.03.09.04.13.09.34.21.68.32,1.02.05.15.09.3.14.45.34,1.02.7,2.01,1.05,3.02,2.4,6.97,5.14,13.74,8.5,20.15.3.57.58,1.16.89,1.73.44.79.91,1.57,1.37,2.35,1.37,2.33,2.85,4.59,4.44,6.79,3.39,4.71,7.26,9.14,11.9,13.11.32.27.63.55.88.82.12.14.23.27.32.41.17.27.25.55.18.83-.1.43-.53.87-1.47,1.34-7.54,3.81-15.11,5.07-23.46,2.46-.14-.05-.29-.1-.43-.14-12.51-3.93-24.69-8.7-36.81-13.67-1.14-.47-2.28-.94-3.43-1.4-1.22-.49-2.45-.95-3.69-1.38-2.27-.79-4.61-1.44-7.08-1.81,1,1.23,2.05,2.4,3.14,3.51,3.04,3.1,6.46,5.73,10.16,7.95.28.17.55.37.84.53.15.08.29.17.44.25,8.32,4.78,16.55,9.79,25.8,12.76.13.04.26.08.41.11.86.2,1.94.34,2.21,1.35.05.17.07.36.06.58-.01.71-.78.85-1.41.96-7.22,1.25-14.25,3.27-21.36,5.03-2.86.71-5.74,1.38-8.64,1.92-1.98.37-3.98.69-5.97,1.01-.75.12-1.5.25-2.24.37-5.25.85-10.49,1.77-15.5,3.65-3.43,1.29-6.8,2.73-10.13,4.24-6.66,3.03-13.19,6.36-19.87,9.35-3.34,1.5-6.72,2.91-10.17,4.16-1.02.37-2.22.82-2.69,2.82,18.5-5.62,36.8-9.58,56.2-10.84-1.9,4-3.73,7.86-5.54,11.66-1.74,3.66-3.45,7.26-5.16,10.85-.06.14-.13.27-.19.41.7-.31,1.37-.66,2-1.03,2.53-1.5,4.57-3.46,6.64-5.35,1.55-1.42,3.13-2.8,4.95-3.91,7.16-4.39,13.18-10.32,19.2-16.24,7.88-7.74,17.57-12.24,28.65-13.46,1.59-.18,2.96-.12,3.33,1.16.12.42.14.98.01,1.71-.82,4.75-1.54,9.52-2.33,14.28-.88,5.27-2.01,10.5-3.11,15.73-1.41,6.67-2.77,13.36-3.52,20.15-.03.25-.08.51-.13.77-.13.64-.29,1.31-.25,1.98.01.23.05.46.11.69.02.06.02.13.05.19.15.41.42.83.86,1.23,2.16-1.91,6.59-9.06,7.01-10.46,2.89-9.64,5.31-19.39,7.54-29.19.75-3.27,1.47-6.54,2.18-9.81.3-1.36.65-2.67,1.07-3.92.41-1.25.89-2.46,1.43-3.61.54-1.15,1.14-2.25,1.8-3.29,3.31-5.21,8.18-9.08,14.81-11.5,1.1-.4,1.84-.52,2.26-.25.41.27.52.92.34,2.09-.57,3.8-.73,7.65-1.42,11.45-.12.66-.22,1.31-.38,1.97-.81,3.33-1.32,6.6-1.5,9.79-.51,9.57,2.12,18.45,9.6,26.34,1.87,1.97,3.56,4.1,5.21,6.28.82,1.09,1.64,2.19,2.45,3.28.82,1.1,1.64,2.19,2.49,3.26.18.23.35.5.54.78.45.68.96,1.34,1.75,1.18.16-.03.33-.1.51-.2.6-.34.8-.91.81-1.54,0-.63-.19-1.32-.39-1.91-.67-1.99-1.38-3.97-2.09-5.95-.71-1.98-1.41-3.96-2.06-5.96-.51-1.57-1.04-3.14-1.57-4.71-3.69-10.98-7.46-21.95-7.91-33.73-.04-.95,0-1.87.08-2.75.17-1.77.59-3.39,1.23-4.86,1.29-2.94,3.52-5.25,6.62-6.78.77-.38,1.6-.72,2.48-1,5.2-1.67,10.42-3.2,15.7-4.51,5.28-1.31,10.62-2.42,16.04-3.25,4.42-.67,7.85,0,10.71,1.98.57.39,1.12.84,1.65,1.34,1.05,1,2.03,2.2,2.95,3.6,1.27,1.93,2.55,3.86,3.82,5.79,3.11,4.71,6.21,9.42,9.33,14.13,4.4,6.63,8.79,13.26,13.14,19.93,2.16,3.31,3.08,5.65,2.61,7.7-.35,1.54-1.47,2.93-3.42,4.45-.65.51-1.39,1.03-2.22,1.58-1.03.68-2.23,1.09-3.36,1.62t0,0c-10.72,5.06-20.18,11.39-27.91,19.38-4.64,4.79-8.66,10.18-11.95,16.25-.46.85-.87,1.75-1.3,2.63-.43.88-.9,1.72-1.3,2.63-.7,1.56-1.36,3.15-1.97,4.79-3.94,10.69-6.25,21.89-7.45,33.26-.2,1.86-.61,3.44-1.9,4.56-.43.37-.95.69-1.6.96-3.09,1.27-5.78,1.57-8.27.93-2.03-.53-3.93-1.73-5.8-3.52-.39-.38-.78-.75-1.17-1.18-1.39-1.55-2.71-3.15-4.04-4.74-.5-.6-1.02-1.17-1.51-1.77-3.58-4.43-6.92-9.02-10.1-13.74-1.59-2.36-3.14-4.74-4.67-7.15-.75-1.19-1.54-2.05-2.51-2.58-.48-.26-1.01-.45-1.6-.54-.59-.1-1.24-.11-1.98-.04-3.67.35-7.32.83-10.92,1.45-7.22,1.23-14.3,2.99-21.25,5.27-3.47,1.14-6.91,2.41-10.32,3.81-7.15,2.94-13.48,1.94-19.02-3.17-.94-.87-1.83-1.81-2.74-2.71-2.75-2.71-5.4-5.52-7.83-8.51-.98-1.2-2.01-2.29-3.07-3.31-2.77-2.68-5.84-4.76-9.28-6.17-2.68-1.1-5.58-1.83-8.73-2.12-.62-.06-1.23-.18-1.84-.27-2.78-.38-5.55-.94-8.34-1.26-19.32-2.21-38.65-4.34-57.98-6.55-2.06-.24-4.12-.46-6.18-.7-4.4-.5-8.71-1.39-12.95-2.57,14.64,57.71,34.56,112.52,41.1,173.59,5.44-2.9,10.87-5.81,16.29-8.74,11.86-6.39,23.69-12.8,35.57-19.15.8-.43,1.33-.9,1.68-1.47.18-.28.31-.59.4-.93.1-.34.16-.71.19-1.11.14-1.57.32-3.14.48-4.72.5-4.72,1.03-9.43,1.25-14.16.13-2.78.24-5.55.35-8.33.49-12.04.98-24.07,2.57-36.04.08-.62.24-1.2.45-1.75,1.51-3.85,6.04-5.89,10.05-4.24,9.97,4.11,18.64,10.31,27.05,16.91,4.72,3.7,9.51,7.38,14.26,12.13.59.59,1.18,1.13,1.78,1.76-.09-1.08-.11-1.67-.14-2.1-.02-.25-.04-.46-.09-.64-2.74-10.81-2.54-21.79-1.68-32.77.12-1.51.35-2.72.71-3.64.18-.46.4-.85.65-1.16,1.26-1.58,3.43-1.39,6.83.33.6.31,1.2.66,1.76,1.05.57.39,1.11.82,1.61,1.28,3.02,2.75,5.71,5.72,8.13,8.86,3.16,4.1,5.82,8.51,7.87,13.25,1.2,2.79,2.2,5.69,2.99,8.7.6,2.28,1.12,4.59,1.51,6.91,1.14,6.86,1.03,13.84-2.22,20.56-3.72,7.69-8.63,14.64-13.79,21.39-1.01,1.33-2.02,2.66-3.05,3.97-1.22,1.56-2.27,2.57-3.34,3.09-.07.03-.14.04-.22.07-.65.27-1.31.39-2.04.32-.8-.08-1.68-.37-2.69-.84-.51-.24-1.04-.52-1.62-.85-2.1-1.19-4.16-2.43-6.18-3.73-3.03-1.95-5.95-4.03-8.72-6.32-1.84-1.53-3.61-3.15-5.29-4.89-.84-.87-1.66-1.77-2.45-2.7-1.02-1.19-2.03-2.37-3.05-3.58-1.25-1.48-2.48-3.01-3.7-4.58-1.76-2.26-3.48-4.63-5.11-7.28.48,4.04,1.23,7.83,2.25,11.35.68,2.35,1.5,4.57,2.45,6.66,1.42,3.14,3.15,6,5.21,8.55,1.37,1.7,2.9,3.26,4.58,4.68,2.52,2.13,5.39,3.93,8.65,5.39,1.09.49,2.21.94,3.39,1.35,2.34.82,4.86,1.48,7.56,1.98-.11.45-.22.82-.35,1.1-.38.87-.85,1.09-1.34,1.26-7.42,2.51-14.78,5.19-22.27,7.48-12.85,3.93-25.25,8.91-37.05,15.33-.31.17-.63.31-.94.48-.51.28-1.2.5-1.73.84-.53.33-.9.78-.78,1.51.09.56.39.85.79,1.01.66.26,1.6.15,2.32.29,1.9.37,3.73.27,5.5-.06,2.23-.42,4.38-1.24,6.43-2.28,2.51-1.28,5.07-2.42,7.65-3.52,2.55-1.08,5.11-2.11,7.71-3.07,1.74-.64,3.49-1.26,5.24-1.86,7.01-2.41,14.11-4.59,21.12-7.01,2.24-.77,4.65-1.2,7.73-1.87.55-.12,1.07-.23,1.66-.37-.23.32-.4.63-.61.95-4.77,6.98-7.75,13.68-10.48,20.46-1.08,2.69-2.27,5.34-3.4,8.02-1.86,4.4-3.58,8.87-4.46,13.69,0,0,0,0,0,0,6.93-10.16,15.37-18.63,25.31-26.23.1,1.12.17,2.12.25,3.11.11,1.48.23,2.9.41,4.27.16,1.22.24,2.49.56,3.71.27,1.04.71,2.05,1.6,2.93.22-.31.37-.6.45-.87.04-.12.03-.23.05-.34.11-.69-.03-1.31-.04-1.91-.09-7.29-.21-14.57,2.41-21.57.51-1.36,1.08-2.67,1.72-3.92,1.59-3.11,3.59-5.79,6.05-7.75,4.43-3.52,10.36-4.68,18.1-1.7,2.69,1.03,5.46,1.87,8.18,2.83,4.24,1.49,8.11,3.26,11.63,5.31,2.09,1.22,4.02,2.55,5.85,3.97,1.25.97,2.46,1.97,3.59,3.03.93.87,1.82,1.77,2.67,2.71,4.62,5.08,8.01,11.1,10.25,18.02.47,1.46.89,2.96,1.26,4.5.32,1.35.6,2.73.84,4.15.33,1.97.62,3.97.8,6.06.36,4.22,1.09,8.46-.18,12.65-.19.62-.38,1.17-.59,1.66,0,.01-.01.03-.02.05-1.48,3.54-3.53,3.92-7.62,1.63-3.96-2.21-7.76-4.7-11.7-6.94-10.02-5.68-17.21-5.1-23.47,2.87-7.19,9.16-13.35,19.06-17.79,29.9-.06.16-.15.31-.21.47-.26.64-.49,1.18-.71,1.66-1.37,3.01-2.16,2.77-5.72-.1-1.44-1.16-2.9-2.22-4.38-3.17-10.32-6.66-21.42-8.06-33.71-2.76-7.79,3.36-14.92,7.76-21.87,12.48-1.46.99-2.91,1.97-4.35,2.98-2.36,1.65-3.74,2.46-4.69,2.15-.34-.11-.62-.42-.87-.84-.45-.73-.81-1.91-1.21-3.7-.69-3.13-1.03-6.31-1.31-9.5-.13-1.53-.27-3.05-.38-4.58-.21-2.93-.42-5.86-.8-8.78-.13-1.02-.29-2.02-.49-2.99-.39-1.95-.91-3.81-1.59-5.57-.41-1.06-.91-2.07-1.44-3.05-1.69-3.07-4.01-5.75-7.22-7.9-6.03-4.03-12.31-7.24-18.83-9.71-2.17-.82-4.37-1.56-6.6-2.22-5.83-1.72-11.85-2.83-18.01-3.47.26,10.03.12,20.25-.53,30.71-1.65,26.85-18.53,87.23-7.32,108.44,8.61,16.29,44.71,22.38,62,25.3,50.32,8.49,125.12,8.88,174.71-3.14,23.79-5.77,43.67-12.7,44.08-41.11.41-28.31-10.23-64-11.65-93.97-2.18-45.87,5.01-87.9,15.11-128.66Z"/>
</svg>