<?xml version="1.0" encoding="UTF-8"?>
<svg id="Layer_1" data-name="Layer 1" xmlns="http://www.w3.org/2000/svg" viewBox="0 0 1000 1000">
  <defs>
    <style>
      .cls-1 {
        fill: none;
      }

      .cls-2 {
        fill: #c39a4d;
      }
    </style>
  </defs>
  <path class="cls-1" d="M627.25,441.8c-23.09,10.96-12.8,46.9,11.42,44.36,38.09-3.99,21.32-59.91-11.42-44.36Z"/>
  <path class="cls-1" d="M579.54,430.87c26.49-12.58,9.1-57.11-22.65-41.05-23.86,12.07-5.88,54.59,22.65,41.05Z"/>
  <path class="cls-1" d="M679.28,361.39c-26.43-17.65-52.66,24.98-23.98,40.52,25.21,13.66,49.04-23.78,23.98-40.52Z"/>
  <path class="cls-2" d="M382.75,221.42c-130.83,49.84-195.9,183.53-178.86,309.8,1.68-.74,3.34-1.53,4.98-2.45.96-.53,1.79-1.15,2.55-1.82.93-.81,1.73-1.72,2.41-2.72.45-.66.87-1.35,1.23-2.08.27-.55.51-1.12.73-1.7.44-1.17.79-2.42,1.07-3.72.74-3.45,1.12-6.96,1.8-10.42l8.29-3.18c2.03,1.63,4.11,3.21,6.25,4.7,2.29,1.6,4.63,3.11,7.12,4.44,1.1.58,2.18,1.07,3.26,1.48.89.34,1.78.58,2.66.79,1.25.31,2.49.54,3.72.62,1.07.07,2.14.05,3.19-.04.15-.01.31-.06.46-.08,3.96-.45,7.83-2.01,11.64-4.6.71-.48,1.26-.84,1.7-1.05.22-.1.41-.17.58-.2.17-.03.32-.02.46.02.54.19.85,1.01,1.34,2.57,2.3,7.36,5.81,14.19,10.04,20.59.91,1.37,1.87,2.45,2.92,3.24,3.15,2.38,7.01,2.22,12.1-.14,2.67-1.24,5.26-2.65,7.93-3.87,1.19-.54,2.1-.78,2.83-.7.48.06.88.26,1.21.62.33.36.59.87.81,1.54.11.34.21.72.3,1.14.3,1.39.27,2.76.12,4.12-.03.26-.08.53-.12.79-.16,1.1-.37,2.19-.55,3.28-2.25,13.4-9.24,22.47-21.03,27.17-1.68.67-3.47,1.25-5.35,1.74-1.44.38-2.88.72-4.32,1.1-.38.1-.75.19-1.13.3-.43.13-.84.22-1.25.31-.87.19-1.7.31-2.49.35-.51.03-.99.03-1.46,0-.66-.04-1.28-.13-1.88-.27-.17-.04-.33-.08-.49-.13-3.14-.92-5.38-3.25-6.92-6.29-.22-.44-.43-.89-.63-1.36-.35-.84-.65-1.72-.9-2.62-1.32-4.67-.86-9.37-.42-14.08.06-.61.38-1.21-.14-2.05-.15.13-.24.28-.36.42-.42.48-.73,1-.9,1.56-.23.72-.33,1.48-.49,2.21,0,.02,0,.05-.01.07-.31,1.44-.5,2.91-.8,4.66-6.02-5.44-11.04-11.36-14.98-18.3.13,1.27.35,2.51.62,3.74.83,3.67,2.21,7.16,3.32,10.72.45,1.44.93,2.87,1.43,4.31.54,1.54,1.16,3.09,1.85,4.65.79,1.79,1.66,3.6,2.76,5.47h0c-.45-.15-.86-.27-1.27-.39-1.85-.56-3.33-.96-4.68-1.55-.14-.06-.29-.12-.44-.19-4.19-1.83-8.43-3.54-12.62-5.36-.08-.03-.16-.07-.23-.1-.07-.03-.14-.07-.21-.1-4.33-1.91-8.6-3.96-12.66-6.46-.57-.35-1.15-.68-1.75-.97-.99-.48-2.03-.82-3.11-1.02-.88-.17-1.78-.26-2.73-.15-.76.09-1.84-.27-2.08.68-.1.4.07.67.32.9.1.09.21.18.34.26.28.17.59.32.84.49.45.3.92.56,1.37.85,7.07,4.54,14.55,8.27,22.36,11.38,4.72,1.88,9.34,4,14,6.01.1.04.2.09.3.16.19.13.36.34.5.72.07.19.12.43.17.73-4.43.45-8.18,1.62-11.32,3.44-6.91,3.99-10.9,11.12-12.83,20.61,0,0,0,0,0,0,2.7-3.67,5.6-6.5,8.48-9.35,4.5-4.47,9.9-7.56,15.57-10.2,1.59-.74,2.71-1.03,3.66-.77.93.25,1.72,1.03,2.65,2.44.91,1.38,1.81,2.76,2.68,4.16.88,1.4,1.73,2.8,2.55,4.23,1.64,2.86,3.12,5.81,4.31,8.9.29.76.53,1.51.71,2.27,1.29,5.29.05,10.54-1.7,15.54-1,2.86-2.3,5.53-3.88,8.02-2.18,3.45-4.9,6.54-8.06,9.27-.64.55-1.29,1.1-1.97,1.63-.35.27-.72.52-1.11.74-.39.22-.79.42-1.2.59-.76.31-1.41.49-1.98.59-2.19.38-3.09-.8-3.08-3.91,0-.89.01-1.79.03-2.68.13-6.24.74-12.43,2.79-18.43.11-.31.11-.66.29-1.76-2.1,1.9-4.18,3.45-6.25,4.88-1.63,1.13-3.25,2.19-4.86,3.25-1.31.86-2.62,1.7-3.95,2.53-.3.19-.6.36-.91.54,13.21,27.31,31.05,53.07,53.74,76.11,30.3,30.75,64.9,52.82,101.43,66.91-1.54-6.34-2.71-11.11-2.69-11.09-8.8-25.12-21.12-48.84-31.38-73.41-.04.2-.07.4-.11.59-11.73-25.53-28.77-48.63-49.94-67.12-8.8-7.68-18.25-14.56-27.93-21.11-3.61-2.45-7.25-4.86-10.91-7.24-3.03-1.97-6.08-6.75-2.87-8.41,5.8,3.07,11.41,6.47,16.93,10.02,24.47,15.75,45.98,36.08,62.96,59.71-.49-1.77-1.01-3.53-1.46-5.31-3.19-12.61-5.16-25.45-5.14-38.36,0-3.08.08-6.16.32-9.25,1.18-15.13,4.83-32.04-4.25-44.2-3.7-4.94-9.06-8.32-13.5-12.6-12.26-11.8-16.65-29.37-20.49-45.94,15.82,8.07,32.97,17.58,39.07,34.25,1.34,3.65,4.65,8.55,7.75,6.19.91-.69,1.31-1.84,1.68-2.91,9.67-28.16,24.93-54.34,44.46-76.81,4.3-4.95,8.74-9.78,13.45-14.35,3.55.7,1.96,6.14-.4,8.88-2.85,3.31-5.66,6.64-8.45,10-7.46,9-14.61,18.24-20.91,28.07-20.57,32.12-31.51,70.28-31.38,108.41.02,5.72.28,11.43.8,17.13.19,2.03.45,4.05.7,6.07,1.28-3.33,2.49-6.13,2.87-6.95,6.25-13.48,19.9-13.58,34.4-19.55-8.2,14.82-14.21,28.51-27.27,32.68-1.87.6-5.46,2.27-8.56,3.74.76,4.46,1.63,8.9,2.65,13.3.74,3.21,1.55,6.4,2.42,9.58,1.23,4.52,2.59,9.01,4.04,13.47,10.14,31.12,25.33,60.95,40.37,90.18,3.66-18.27,11.58-35.66,22.92-50.44,1.59-2.07,3.24-4.1,4.97-6.07,3.09,4.79-.69,10.76-4.16,15.41-.13.17-.25.35-.38.52-11.55,15.28-18.27,34.15-18.98,53.29-.05,1.24-.05,2.5-.07,3.76,154.5,51.98,338.45-34.93,377.64-211.35,51.18-230.39-173.23-416.1-391.63-332.89ZM556.89,389.82c31.75-16.06,49.14,28.47,22.65,41.05-28.53,13.54-46.51-28.98-22.65-41.05ZM400.16,402.55c-.49-1.01-.91-1.92-1.34-2.82-.64-1.34-1.25-2.63-1.91-3.84-.59-1.09-1.12-2.24-1.85-3.26-.63-.88-1.4-1.66-2.54-2.17-.1.37-.13.69-.11.98,0,.12.05.23.07.34.14.68.49,1.21.72,1.77,2.69,6.78,5.4,13.53,5.45,21.01.01,1.45-.05,2.88-.21,4.27-.38,3.47-1.29,6.69-2.89,9.4-2.88,4.87-8.01,8.06-16.3,8.05-2.88,0-5.77.2-8.65.28-4.49.12-8.74-.15-12.76-.81-2.38-.39-4.67-.95-6.88-1.62-1.51-.46-3-.96-4.44-1.55-1.18-.48-2.33-1.01-3.46-1.58-6.12-3.1-11.45-7.51-16-13.18-.96-1.19-1.89-2.44-2.78-3.75-.78-1.15-1.54-2.34-2.27-3.57-1.01-1.72-2-3.49-2.91-5.38-1.84-3.82-4.03-7.51-4.35-11.88-.05-.64-.06-1.23-.05-1.76,0-.01,0-.03,0-.05.12-3.83,1.9-4.92,6.54-4.25,4.49.65,8.92,1.62,13.41,2.31,11.39,1.73,17.9-1.38,20.9-11.06,3.44-11.12,5.66-22.57,5.95-34.28,0-.17.03-.34.03-.51.01-.69.03-1.28.07-1.8.21-3.3,1.03-3.36,5.38-1.95,1.76.57,3.5,1.04,5.22,1.4,12.02,2.54,22.89-.11,32.47-9.45,6.08-5.92,11.17-12.58,15.98-19.46,1.01-1.44,2.02-2.88,3-4.34,1.61-2.38,2.62-3.63,3.62-3.69.36-.02.73.17,1.11.47.68.52,1.44,1.49,2.45,3.03,1.76,2.68,3.22,5.53,4.61,8.41.67,1.38,1.34,2.76,1.99,4.15,1.24,2.66,2.48,5.33,3.88,7.92.49.9.99,1.78,1.52,2.62,1.06,1.68,2.21,3.24,3.47,4.63.76.84,1.59,1.61,2.44,2.33,2.67,2.27,5.8,3.94,9.57,4.8,7.07,1.61,14.09,2.37,21.06,2.35,2.32,0,4.64-.1,6.95-.28,9.25-.72,18.4-2.8,27.46-6.08.21-.08.46-.18.71-.29.68-.29,1.4-.63,1.48-.51.2.3.4.5.61.7.06.06.12.15.18.2.26.22.53.37.79.47,1.6.56,3.23-.93,4.79-1.19.76-.13,1.51-.31,2.26-.46,2.6-.54,5.19-1.16,7.81-1.65.21-.04.42-.08.63-.1.21-.03.42-.05.62-.06.41-.02.8.02,1.14.14.68.24,1.17.83,1.22,2.08,0,.03,0,.07,0,.1.23,5.45-.2,10.34-4.3,14.98-8.93,10.08-17.75,20.25-26.55,30.45-8.79,10.2-17.56,20.42-26.39,30.59-.59.68-.92,1.32-1.05,1.98-.06.33-.07.66-.04,1.01.03.35.11.72.22,1.11.43,1.52.82,3.05,1.23,4.58,1.22,4.58,2.41,9.18,3.89,13.67.87,2.64,1.76,5.27,2.64,7.9,3.83,11.42,7.67,22.84,10.46,34.58.14.61.21,1.21.2,1.8-.04,4.13-3.54,7.66-7.87,7.55-10.78-.28-21.09-2.98-31.31-6.14-5.73-1.77-11.52-3.5-17.66-6.24-.76-.34-1.51-.64-2.29-1.01.47.98.7,1.52.88,1.91.11.23.2.41.31.57,6.42,9.12,10.15,19.45,13.26,30.02.43,1.46.64,2.67.63,3.65,0,.49-.07.93-.19,1.32-.62,1.92-2.71,2.52-6.5,2.13-.67-.07-1.35-.19-2.02-.35-.67-.16-1.33-.37-1.96-.62-3.8-1.49-7.38-3.3-10.76-5.37-4.41-2.7-8.47-5.87-12.08-9.57-2.12-2.18-4.09-4.53-5.9-7.06-1.37-1.92-2.69-3.89-3.87-5.92-3.51-6-5.9-12.56-5.26-20,.73-8.52,2.84-16.75,5.25-24.9.47-1.6.94-3.2,1.43-4.8.58-1.89,1.2-3.21,2.02-4.08.05-.06.12-.09.18-.14.51-.48,1.09-.83,1.79-1.02.78-.21,1.7-.26,2.82-.17.56.04,1.16.12,1.82.22,2.38.37,4.75.78,7.1,1.27,3.52.74,7,1.64,10.4,2.79,2.27.77,4.5,1.66,6.69,2.68,1.1.51,2.18,1.06,3.25,1.64,1.37.75,2.75,1.49,4.12,2.25,1.69.94,3.39,1.93,5.09,2.96,2.45,1.49,4.9,3.09,7.37,4.97-1.89-3.6-3.94-6.88-6.15-9.8-1.48-1.95-3.03-3.73-4.66-5.35-2.45-2.43-5.08-4.48-7.92-6.13-1.89-1.1-3.87-2.01-5.95-2.74-3.11-1.09-6.44-1.75-10.01-1.95-1.19-.07-2.4-.08-3.64-.05-2.48.07-5.07.35-7.77.85-.06-.46-.08-.84-.07-1.16.05-.95.4-1.32.8-1.65,6.03-4.99,11.96-10.12,18.13-14.93,10.6-8.26,20.41-17.33,29.14-27.54.23-.27.48-.52.71-.79.38-.45.94-.9,1.32-1.4.38-.5.56-1.05.19-1.69-.29-.49-.67-.66-1.1-.66-.71,0-1.55.43-2.27.55-1.91.33-3.58,1.07-5.12,2.02-1.93,1.19-3.65,2.72-5.19,4.43-1.89,2.09-3.87,4.07-5.89,6.02-1.99,1.92-4.02,3.8-6.1,5.62-1.4,1.22-2.81,2.42-4.23,3.61-5.69,4.76-11.55,9.32-17.23,14.08-1.82,1.52-3.92,2.78-6.55,4.5-.47.31-.92.59-1.42.94.1-.38.14-.73.23-1.11,1.96-8.23,2.36-15.55,2.49-22.85.05-2.9.21-5.8.32-8.71.17-4.78.18-9.57-.72-14.38,0,0,0,0,0,0-2.85,11.96-7.71,22.89-14.28,33.53ZM637.43,524.44c0,.73-.04,1.51-.12,2.36-.03.35-.14.66-.21.99-.25,1.35-.67,2.63-1.3,3.87-3.83,7.57-8.9,14.32-14.15,20.9-16.28,20.4-31.17,41.76-44.48,64.2-.51.85-.98,1.72-1.43,2.59-3.1,6.13-4.43,12.8-1.06,19.65,2.91,5.92,3.44,11.2-2.09,15.67-.16.13-.28.27-.46.4h0c-.09.07-.14.19-.21.28-.17.21-.33.41-.46.66-.11.21-.21.42-.35.61-2.56,3.34-4.72,6.89-6.63,10.57-.64,1.22-1.25,2.46-1.85,3.71-1.19,2.5-2.3,5.03-3.38,7.58-1.08,2.54-2.14,5.1-3.23,7.64-.73,1.69-1.36,3.38-1.89,5.06-3.76,11.8-2.84,23.47,3.79,34.89.83,1.43,1.75,2.8,2.66,4.17.89,1.35,1.78,2.7,2.55,4.12.52.96.99,1.95,1.38,2.99.09.25.13.49.2.74.09.32.18.65.23.96.41,3.04-1.16,5.68-4.07,6.48-.49.14-1.02.22-1.59.24-2.72.11-5.45.21-8.18.27-2.73.06-5.46.08-8.18.02-20.41-.42-40.86-1.91-61.13,1.74-14.51,2.61-25.95-1-35.95-9.2-1.63-1.34-3.23-2.79-4.79-4.37-.03-.03-.07-.06-.1-.1-2.57-2.61-5.06-5.54-7.5-8.75-.82-1.08-1.47-2.16-2.04-3.25-1.5-2.87-2.21-5.77-2.32-8.68-.1-2.67.3-5.35.98-8.03.52-2,1.2-4,1.97-5.99.77-1.99,1.63-3.97,2.49-5.93.23-.52.52-.97.77-1.47,3.22-6.49,8.01-11.4,13.46-15.62,3.9-3.02,8.1-5.73,12.28-8.44,2.33-1.51,4.64-2.33,6.96-2.57,1.51-.15,3.03-.06,4.54.26,1.53.33,3.06.88,4.6,1.64.77.38,1.53.8,2.3,1.28,2.07,1.27,4.09,2.59,6.09,3.95,2,1.36,3.97,2.76,5.92,4.19,2.65,1.94,5.25,3.94,7.84,5.96,1.22.95,2.44,1.9,3.66,2.86,4.52,3.58,9.16,7.02,13.78,10.48,0,0,0,0,0,0,.84.63,1.97,1.62,2.92.72,1.16-1.1.07-2.28-.6-3.3-.03-.05-.08-.1-.11-.15-.03-.04-.06-.07-.09-.11-.21-.29-.44-.57-.66-.84-.1-.12-.19-.25-.29-.37-.68-.83-1.37-1.63-2.06-2.45-4.73-5.66-9.71-11-15.13-15.79-.49-.43-.95-.88-1.45-1.29-.69-.59-1.41-1.14-2.11-1.7-2.11-1.69-4.3-3.27-6.57-4.76-4.85-3.19-10.05-5.95-15.8-8-.4-.14-.79-.28-1.11-.45-.16-.08-.31-.17-.44-.27-.26-.19-.43-.42-.46-.71-.06-.43.19-1,.89-1.78,5.68-6.24,12.31-10.13,21.04-10.67.15,0,.3-.01.45-.02,13.09-.79,26.17-.68,39.26-.36,1.23.03,2.47.07,3.71.09,1.31.02,2.63.02,3.94-.03,2.4-.08,4.82-.3,7.26-.84-1.37-.79-2.77-1.51-4.19-2.16-3.95-1.81-8.08-3.05-12.33-3.8-.33-.06-.64-.15-.97-.2-.17-.03-.33-.05-.5-.08-9.48-1.5-18.96-3.24-28.65-2.71-.13,0-.27.02-.42.04-.88.12-1.93.38-2.54-.47-.1-.14-.19-.31-.27-.52-.24-.67.43-1.07.98-1.4,6.3-3.74,12.15-8.15,18.16-12.32,2.42-1.68,4.87-3.33,7.38-4.88,1.72-1.05,3.47-2.07,5.22-3.08.66-.38,1.31-.77,1.96-1.15,4.6-2.66,9.17-5.4,13.18-8.94,2.75-2.43,5.38-4.97,7.95-7.58,5.14-5.21,10.05-10.65,15.23-15.83,2.59-2.59,5.24-5.12,8.01-7.51.82-.71,1.78-1.56,1.51-3.6-15.28,11.85-30.95,22.09-48.63,30.19.35-4.41.68-8.67,1.01-12.86.32-4.04.63-8.01.94-11.98.01-.15.02-.3.04-.45-.55.54-1.04,1.1-1.5,1.68-1.83,2.31-3.03,4.86-4.3,7.37-.95,1.88-1.93,3.73-3.23,5.42-5.12,6.66-8.63,14.35-12.14,22.02-4.6,10.04-12.04,17.71-21.96,22.8-1.42.73-2.72,1.16-3.53.11-.27-.35-.48-.87-.62-1.59-.93-4.73-1.96-9.45-2.92-14.17-1.06-5.24-1.87-10.52-2.71-15.81-1.07-6.74-2.18-13.46-3.9-20.08-.06-.25-.11-.5-.15-.77-.1-.65-.2-1.33-.47-1.94-.09-.21-.21-.42-.35-.61-.04-.05-.07-.11-.11-.16-.29-.33-.69-.62-1.24-.85-1.33,2.56-2.92,10.82-2.82,12.27.74,10.03,1.96,20.01,3.37,29.96.47,3.32.96,6.63,1.46,9.95.21,1.37.34,2.72.4,4.04.06,1.32.05,2.61-.05,3.88-.09,1.27-.26,2.5-.5,3.71-1.23,6.05-4.4,11.4-9.73,16.03-.88.76-1.53,1.14-2.02,1.04-.48-.1-.81-.68-1.07-1.83-.82-3.76-2.04-7.41-2.76-11.2-.12-.65-.27-1.3-.35-1.97-.44-3.4-1.12-6.64-2.1-9.68-2.94-9.12-8.57-16.48-18.37-21.17-2.45-1.17-4.79-2.56-7.11-4.01-1.16-.72-2.31-1.46-3.46-2.19-1.15-.73-2.31-1.46-3.48-2.16-.25-.15-.51-.34-.78-.53-.67-.47-1.37-.91-2.05-.47-.14.09-.27.21-.4.37-.44.53-.43,1.14-.21,1.72.22.59.65,1.16,1.05,1.65,1.34,1.62,2.71,3.22,4.08,4.82,1.37,1.6,2.73,3.2,4.05,4.84,1.04,1.29,2.09,2.56,3.14,3.84,7.36,8.94,14.8,17.84,19.42,28.68.37.87.68,1.74.91,2.6.47,1.71.66,3.38.58,4.98-.16,3.21-1.42,6.16-3.76,8.69-.59.63-1.24,1.24-1.96,1.82-4.26,3.41-8.59,6.7-13.06,9.82-4.46,3.11-9.06,6.05-13.83,8.76-3.88,2.21-7.34,2.8-10.71,1.97-.67-.17-1.34-.39-2.02-.66-1.34-.55-2.68-1.33-4.04-2.31-1.87-1.36-3.76-2.69-5.64-4.04-4.58-3.29-9.17-6.58-13.76-9.87-6.47-4.63-12.95-9.25-19.39-13.93-3.2-2.32-4.89-4.18-5.19-6.26-.23-1.56.33-3.26,1.6-5.37.43-.71.93-1.46,1.51-2.27.72-1,1.7-1.81,2.56-2.71t0,0c8.21-8.56,14.79-17.85,19.16-28.07,2.62-6.13,4.45-12.6,5.36-19.45.13-.96.18-1.95.28-2.92.09-.97.22-1.93.28-2.92.09-1.71.15-3.43.13-5.18-.13-11.39-1.97-22.68-4.91-33.73-.48-1.81-.66-3.43.15-4.94.27-.5.64-.99,1.15-1.47,2.43-2.29,4.84-3.53,7.39-3.82,2.09-.23,4.29.21,6.67,1.22.5.21,1,.42,1.52.68,1.85.95,3.66,1.97,5.47,2.99.68.38,1.37.73,2.04,1.12,4.92,2.86,9.68,5.96,14.34,9.23,2.33,1.63,4.63,3.31,6.91,5.01,1.13.84,2.17,1.37,3.27,1.52.55.07,1.11.05,1.69-.06.59-.12,1.2-.34,1.86-.67,3.31-1.64,6.54-3.39,9.69-5.25,6.3-3.72,12.29-7.9,17.97-12.51,2.84-2.31,5.6-4.72,8.28-7.25,5.62-5.3,11.9-6.62,18.89-3.83,1.19.48,2.35,1.03,3.53,1.55,3.53,1.55,7.02,3.23,10.35,5.16,1.34.78,2.69,1.42,4.05,2,3.54,1.51,7.15,2.36,10.87,2.45,2.9.07,5.86-.28,8.91-1.13.6-.17,1.21-.27,1.81-.41,2.74-.63,5.52-1.1,8.24-1.8,18.84-4.84,37.66-9.74,56.5-14.57,2.01-.52,4.01-1.04,6.02-1.55,5.93-1.52,11.97-2.33,18.04-2.56,2.03-.08,4.06-.09,6.09-.05,4.13.09,6.54,1.11,7.74,3.3.36.65.64,1.37.79,2.25.11.64.16,1.34.17,2.1,0,.04,0,.09,0,.12ZM638.68,486.17c-24.22,2.54-34.52-33.4-11.42-44.36,32.74-15.54,49.51,40.37,11.42,44.36ZM655.3,401.91c-28.68-15.54-2.45-58.17,23.98-40.52,25.06,16.74,1.23,54.17-23.98,40.52Z"/>
</svg>