<?xml version="1.0" encoding="UTF-8"?>
<svg id="Layer_1" data-name="Layer 1" xmlns="http://www.w3.org/2000/svg" viewBox="0 0 1000 1000">
  <defs>
    <style>
      .cls-1 {
        fill: none;
      }

      .cls-2 {
        fill: #c39a4d;
      }
    </style>
  </defs>
  <path class="cls-1" d="M279.24,489.66c-.27.12-.61.21-.92.32-.14.05-.26.12-.38.19-.29.18-.51.41-.48.82.06.98,1.19.83,1.92,1.05.91.28,1.81.36,2.71.36,1.1,0,2.19-.13,3.25-.42.64-.17,1.28-.39,1.9-.63,4.45-1.7,9.03-2.92,13.64-3.98.08-.02.15-.04.23-.06.08-.02.17-.04.25-.05.28-.06.55-.12.83-.18-.15-1.45-.29-2.91-.43-4.36-7.17,1.54-14.19,3.59-21,6.34-.5.2-1.01.37-1.51.58Z"/>
  <path class="cls-1" d="M643.06,540.31c-.38.55-.75,1.1-1.13,1.65.62.7,1.26,1.38,1.88,2.09.63-1.89-.09-2.9-.75-3.74Z"/>
  <path class="cls-2" d="M785.33,250.94c-8-10.67-27.44-18.83-39.79-24.53-112.56-52.03-290-81.05-409.16-40.81-32.01,10.81-52.35,45.21-49.58,79.1.94,11.53,4.92,19.08,10.84,23.87,39.1-8.4,78.78-14.14,118.68-16.93,71.97-5.04,145.66-1.2,216.31,13.84,32.23,6.86,63.95,16.91,93.35,31.94,14.13,7.22,27.47,15.72,40.02,25.41,2.85,2.2,5.65,4.48,8.46,6.74,2.72-3.92,5.43-7.86,8.16-11.78,13.65-24.99,21.03-62.42,2.72-86.84Z"/>
  <path class="cls-2" d="M749.93,362.81c-16.06-12.28-33.91-22.35-52.44-30.4-38.2-16.58-79.92-25.04-121.05-30.35-24.01-3.1-48.13-5.07-72.28-5.97.09,3.42-.29,6.91-.84,10.4-.62,3.96-1.45,7.94-2.04,11.85-2.87,18.93.2,38.73,8.69,55.9.09.19.18.39.28.58,2.54,5.22,5.14,11.79,1.21,15.91-1.32-2.25-2.57-4.55-3.75-6.89-8.37-16.64-12.91-35.2-13.09-53.83-20.23,25.91-40.72,52.38-56.5,81.06-2.26,4.11-4.44,8.27-6.49,12.48-1.45,2.96-2.84,5.95-4.16,8.96-1.82,4.13-3.51,8.33-5.09,12.57,2.77,2.02,5.99,4.33,7.71,5.27,12.04,6.54,15.4,21.1,20.69,37.2-13.13-8.57-26.52-11.23-30.15-25.63-.22-.88-.89-3.85-1.52-7.36-.62,1.94-1.26,3.87-1.82,5.83-1.58,5.5-2.9,11.06-3.98,16.68-7.25,37.43-3.63,76.96,10.58,112.36,4.35,10.84,9.65,21.25,15.3,31.49,2.11,3.82,4.26,7.62,6.43,11.4,1.8,3.13,2.35,8.77-1.27,8.8-3.78-5.37-7.23-10.94-10.54-16.61-14.99-25.72-25.09-54.29-29.33-83.77-.16-1.13-.35-2.33-1.11-3.17-2.6-2.89-6.77,1.3-8.77,4.63-9.12,15.24-27.74,21.38-44.78,26.35,6.87-15.57,14.46-32,28.71-41.31,5.17-3.37,11.07-5.69,15.62-9.86,11.2-10.24,10.77-27.54,12.43-42.63.34-3.08.85-6.12,1.41-9.14,2.39-12.69,6.72-24.93,12.21-36.73.77-1.66,1.61-3.3,2.42-4.94-21.09,20.05-46.02,36-73,46.91-6.08,2.46-12.23,4.75-18.5,6.68-2.84-2.23,1.04-6.36,4.39-7.73,4.04-1.66,8.06-3.35,12.07-5.08,10.73-4.63,21.3-9.62,31.38-15.52,24.25-14.21,45.31-33.72,61.6-56.61,0,.2,0,.4,0,.6,14.67-22.22,31.2-43.22,44.54-66.25-.06.05,8.83-19.28,13.91-30.99-66.89-2.07-133.97,4.2-199.4,18.62-.21,13.24-.42,26.47-.62,39.71-.01.89.03,1.74.1,2.57-.39,3.01-.7,5.97-.86,8.85-.96,17.55-1.1,35.28-.62,53.13.32.1.64.22.95.38,1.52.83,2.98,1.73,4.39,2.69.73.5,1.45,1.01,2.15,1.54,1.38,1.04,2.72,2.12,4.03,3.25.78.68,1.55,1.37,2.31,2.07,1.15,1.05,2.28,2.13,3.41,3.22,1.38,1.34,2.78,2.69,4.17,4.1,1.76,1.8,3.52,3.71,5.23,5.97.03-1.12.09-1.46.04-1.79-.9-6.27-.33-12.46.7-18.62.15-.88.3-1.76.47-2.64.57-3.06,1.68-4.05,3.76-3.27.55.2,1.14.5,1.84.95.37.24.73.51,1.06.8.34.29.66.61.95.94.57.64,1.11,1.3,1.63,1.97,2.6,3.28,4.69,6.82,6.19,10.62,1.08,2.74,1.86,5.61,2.31,8.61.79,5.23,1.02,10.62-1.23,15.58-.32.71-.69,1.41-1.12,2.1-1.75,2.82-3.76,5.43-5.9,7.94-1.07,1.25-2.17,2.48-3.3,3.68-1.12,1.21-2.27,2.4-3.41,3.58-1.18,1.21-2.09,1.83-3.06,1.9-.99.08-2.03-.42-3.46-1.44-5.08-3.66-9.81-7.7-13.4-12.93-2.29-3.35-4.62-6.67-6.59-10.77,0,0,0,0,0,0,.13,9.68,2.72,17.42,8.76,22.64,2.75,2.37,6.21,4.22,10.48,5.49-.1.29-.2.51-.3.69-.2.36-.41.52-.62.62-.11.05-.22.08-.33.1-4.96,1.11-9.89,2.33-14.88,3.29-1.04.2-2.06.44-3.09.67.14,1.45.28,2.9.43,4.36,4.18-.94,8.39-1.78,12.56-2.73.15-.04.31-.07.46-.1,1.44-.33,2.97-.44,4.89-.65.43-.05.85-.09,1.32-.15h0c-1.43,1.63-2.62,3.24-3.73,4.86-.97,1.41-1.86,2.81-2.68,4.22-.77,1.32-1.51,2.64-2.21,3.97-1.75,3.29-3.76,6.46-5.26,9.91-.5,1.15-.95,2.33-1.31,3.55,5.17-6.08,11.2-10.96,18.13-15.18-.04,1.78-.11,3.26-.08,4.73,0,.02,0,.05,0,.07.02.74-.02,1.51.07,2.26.07.58.28,1.15.6,1.7.09.16.15.32.27.48.66-.73.46-1.38.52-1.98.44-4.71.86-9.41,3.04-13.75.42-.84.88-1.65,1.38-2.41.28-.42.57-.83.87-1.22,2.08-2.7,4.72-4.57,7.97-4.89.17-.02.34-.03.51-.03.61-.03,1.24,0,1.9.09.47.06.95.15,1.44.27.77.19,1.56.46,2.38.81.39.17.77.33,1.17.54.35.18.7.33,1.05.5,1.34.64,2.69,1.25,4.04,1.88,1.76.83,3.4,1.74,4.93,2.71,10.71,6.82,15.88,17.04,15.59,30.62-.02,1.11-.02,2.22-.07,3.33-.01.27-.01.53-.03.8-.1,1.37-.33,2.72-.88,4.03-.17.4-.33.75-.51,1.06-.34.62-.7,1.08-1.09,1.36-.39.29-.81.41-1.3.38-.73-.05-1.58-.46-2.65-1.21-2.4-1.7-4.68-3.57-7.07-5.28-4.56-3.27-8.33-4.15-11.86-2.4-1.18.58-2.33,1.46-3.48,2.64-5.34,5.49-10.07,11.55-13.71,18.35-.77,1.45-1.23,2.2-1.79,2.28-.14.02-.29,0-.45-.06-.16-.06-.34-.17-.53-.31-.39-.29-.87-.74-1.48-1.34-3.26-3.25-6.77-5.51-10.58-6.69-.15-.05-.29-.12-.44-.16-1.02-.29-2.06-.51-3.13-.64-1.06-.13-2.16-.14-3.26-.1,12.79,94.78,33.61,190.78,39.59,282.16,11,49.63,62.27,64.44,95.4,23.27,22.19-27.56,43.98-60.83,65.33-94.57-1.15-.27-2.28-.58-3.44-.8-6.84-1.32-13.88-1.89-21.13-1.63-3.86.14-7.24,1.2-10.29,2.93-.97.55-1.92,1.15-2.83,1.84-1.5,1.14-2.92,2.45-4.27,3.9-.68.73-1.34,1.49-1.99,2.29-1.86,2.28-3.57,4.67-5.29,7.05-.9,1.25-1.81,2.47-2.73,3.7-1.91,2.57-3.87,5.09-6.1,7.4-1.28,1.32-2.2,2.13-2.97,2.52-.43.22-.83.34-1.18.25-.97-.24-1.72-1.65-2.86-4.3-.7-1.62-1.42-3.22-2.14-4.82-3.44-7.66-7.2-15.15-12.06-22.1-7.68-10.96-17.86-15.6-30.14-15.35-1.75.03-3.55.17-5.39.4-4.54.57-5.34.36-4.92-2.92.07-.52.15-1.1.27-1.78.03-.17.04-.34.06-.51,1.9-11.56,1.86-23.22.55-34.79-1.14-10.07-6.95-14.34-18.46-14.76-4.53-.17-9.07-.04-13.6-.24-4.69-.21-6.23-1.61-5.63-5.39,0-.01,0-.03.01-.05.09-.53.21-1.1.38-1.72,1.13-4.23,3.97-7.46,6.49-10.86,1.25-1.68,2.54-3.24,3.86-4.74.95-1.08,1.91-2.11,2.9-3.09,1.12-1.12,2.26-2.17,3.43-3.17,5.54-4.71,11.59-8.06,18.18-9.95,1.21-.35,2.44-.65,3.69-.9,1.52-.31,3.08-.52,4.65-.69,2.3-.24,4.65-.36,7.06-.3,4.07.1,8.29.63,12.68,1.59,2.82.62,5.61,1.36,8.45,1.89,8.15,1.53,12.59,5.63,14.51,10.95,1.07,2.96,1.36,6.29,1.08,9.77-.11,1.39-.31,2.81-.6,4.23-1.45,7.34-5.37,13.47-9.28,19.62-.32.51-.77.96-1.03,1.61-.04.11-.1.2-.13.32-.07.28-.1.6-.07.98,1.22-.29,2.12-.91,2.9-1.66.91-.87,1.65-1.91,2.42-2.86.87-1.07,1.72-2.22,2.59-3.42.59-.81,1.17-1.62,1.84-2.52,4.47,11.68,7.21,23.32,7.77,35.61,0,0,0,0,0,0,1.78-4.56,2.66-9.27,3.39-13.99.44-2.88.83-5.76,1.32-8.61,1.23-7.2,2.21-14.47,1.82-22.92-.02-.39,0-.74-.02-1.13.43.43.82.8,1.22,1.19,2.27,2.19,4.09,3.81,5.59,5.65,4.69,5.74,9.59,11.32,14.29,17.05,1.18,1.43,2.34,2.88,3.48,4.34,1.7,2.17,3.35,4.4,4.95,6.66,1.62,2.29,3.2,4.61,4.66,7.01,1.2,1.96,2.59,3.79,4.27,5.32,1.34,1.21,2.84,2.26,4.65,2.94.69.26,1.43.84,2.13.97.42.07.83-.02,1.2-.44.49-.56.4-1.13.13-1.69-.28-.56-.75-1.11-1.03-1.62-.17-.31-.37-.6-.55-.91-6.68-11.66-14.61-22.41-23.49-32.5-5.17-5.88-10.03-12.03-15.02-18.06-.33-.4-.61-.83-.48-1.77.04-.31.13-.68.28-1.13,2.56.99,5.05,1.75,7.48,2.28,1.21.27,2.41.48,3.59.63,3.54.47,6.93.44,10.19-.05,2.17-.33,4.29-.86,6.35-1.58,3.09-1.09,6.06-2.61,8.92-4.54,1.91-1.29,3.77-2.75,5.58-4.39,2.72-2.45,5.34-5.29,7.87-8.48-2.78,1.39-5.49,2.51-8.17,3.51-1.86.7-3.71,1.35-5.55,1.96-1.5.49-2.98.97-4.47,1.44-1.16.37-2.33.71-3.5,1.01-2.34.6-4.7,1.05-7.07,1.38-3.56.5-7.14.74-10.74.8-2.4.04-4.81,0-7.22-.07-.67-.02-1.27-.06-1.83-.13-1.11-.13-2.01-.34-2.73-.69-.66-.32-1.16-.77-1.57-1.34-.04-.06-.1-.11-.15-.17-.64-1-1-2.41-1.22-4.38-.18-1.66-.35-3.32-.51-4.98-.85-8.45-1.38-16.94-.51-25.44.76-7.43,4.33-13.43,8.9-18.67,1.55-1.77,3.21-3.47,4.91-5.09,2.25-2.15,4.62-4.09,7.12-5.84,4.23-2.96,8.81-5.32,13.65-7.15,3.71-1.4,7.56-2.51,11.57-3.27.67-.13,1.35-.21,2.04-.24.69-.04,1.38-.03,2.05.03,3.8.32,5.74,1.3,5.99,3.3.05.4.03.84-.05,1.33-.17.97-.61,2.12-1.3,3.47-5.03,9.8-10.62,19.25-18.63,27.01-.14.13-.27.3-.41.5-.25.35-.58.84-1.22,1.71.83-.22,1.62-.38,2.44-.57,6.54-1.55,12.55-2.17,18.51-2.84,10.62-1.19,21.26-1.92,31.9-.18,4.28.7,7.06,4.82,6.32,8.89-.1.58-.28,1.16-.54,1.73-4.93,11.02-10.83,21.52-16.73,32.02-1.36,2.42-2.72,4.84-4.07,7.27-2.3,4.14-4.32,8.43-6.37,12.7-.68,1.42-1.36,2.85-2.06,4.27-.18.36-.32.71-.42,1.05-.1.34-.15.67-.15,1,0,.67.2,1.35.66,2.14,5.51,9.48,10.98,18.98,16.46,28.48,11.23-17.83,22.33-35.23,33.27-51.34,17.32-25.51,34.68-51,52.07-76.47-5.65-2.66-11.3-5.33-16.95-7.99-2.54-1.2-5.19-2.17-7.76-3.3-.57-.25-1.15-.46-1.71-.74-2.84-1.4-5.68-2.31-8.54-2.78-3.67-.6-7.38-.44-11.14.38-1.44.31-2.89.69-4.35,1.21-3.63,1.27-7.37,2.27-11.13,3.13-1.25.29-2.5.62-3.76.87-7.4,1.44-13.31-1.03-17.85-7.29-2.16-2.98-4.42-5.87-6.78-8.66-4.71-5.59-9.82-10.81-15.31-15.64-2.75-2.42-5.59-4.74-8.54-6.97-.59-.44-1.15-.78-1.7-1-.55-.23-1.1-.35-1.65-.38-1.1-.06-2.23.26-3.49.88-2.56,1.25-5.13,2.47-7.72,3.64-5.18,2.34-10.44,4.49-15.81,6.39-.73.26-1.48.47-2.21.71-1.97.66-3.93,1.33-5.93,1.91-.56.16-1.09.27-1.62.39-2.53.55-4.78.57-6.78-.05-2.46-.76-4.59-2.43-6.55-5.13-.41-.57-.69-1.12-.86-1.66-.51-1.63-.03-3.19.78-4.88,4.95-10.31,8.86-21.05,11.12-32.22.35-1.72.61-3.42.84-5.11.13-.98.18-1.95.27-2.92.09-.97.22-1.96.27-2.92.38-6.9-.21-13.59-1.64-20.11-2.39-10.86-7.11-21.21-13.58-31.15t0,0c-.68-1.04-1.49-2.02-2.01-3.14-.42-.91-.78-1.74-1.06-2.51-.86-2.32-1.09-4.08-.57-5.58.68-1.99,2.69-3.5,6.27-5.18,7.2-3.39,14.42-6.73,21.65-10.06,5.12-2.37,10.24-4.74,15.36-7.12,2.1-.98,4.2-1.94,6.3-2.92,1.52-.71,2.98-1.22,4.4-1.52.71-.15,1.41-.24,2.1-.28,3.47-.18,6.75,1.04,10.15,3.94,4.18,3.55,8.15,7.29,11.95,11.19,3.8,3.89,7.45,7.93,10.99,12.08.6.7,1.13,1.42,1.59,2.16,1.83,2.93,2.52,6.06,2.07,9.24-.22,1.59-.72,3.19-1.5,4.79-.39.8-.85,1.59-1.38,2.38-6.56,9.79-15.53,17.14-24.44,24.55-1.27,1.06-2.54,2.12-3.8,3.19-1.6,1.36-3.24,2.68-4.88,3.99-1.64,1.32-3.28,2.63-4.9,3.97-.48.4-1.01.89-1.34,1.42-.33.54-.45,1.13-.12,1.73.1.19.21.33.33.44.59.55,1.36.26,2.11-.08.3-.14.59-.28.86-.38,1.28-.47,2.55-.96,3.83-1.47,1.27-.5,2.54-1.01,3.81-1.51,2.55-.99,5.11-1.92,7.73-2.61,10.5-2.78,17.41-8.96,22-17.37,1.53-2.81,2.8-5.86,3.87-9.12.21-.64.47-1.25.71-1.87,1.41-3.59,3.29-6.95,4.8-10.49.46-1.08.9-1.58,1.39-1.6.5-.01,1.07.48,1.79,1.4,4.37,5.53,6.49,11.39,6.56,17.56.02,1.23-.05,2.48-.2,3.74-.15,1.26-.37,2.53-.68,3.82-.3,1.28-.69,2.58-1.15,3.9-1.11,3.16-2.21,6.33-3.29,9.5-3.24,9.51-6.31,19.09-8.91,28.81-.38,1.4-.35,9.82.48,12.58.58-.12,1.03-.33,1.38-.6.05-.04.09-.09.14-.14.18-.16.33-.34.46-.53.38-.56.6-1.2.82-1.82.09-.25.18-.5.29-.73,2.93-6.18,5.27-12.58,7.58-19,1.81-5.03,3.59-10.07,5.62-15.02,1.83-4.47,3.71-8.91,5.51-13.38.28-.69.58-1.15.91-1.45.99-.89,2.18-.22,3.44.77,8.8,6.86,14.68,15.77,17.32,26.5,2.02,8.2,4.03,16.41,7.82,23.9.96,1.91,1.58,3.91,2.16,5.93.77,2.7,1.48,5.43,2.84,8.04.34.65.73,1.3,1.16,1.93.02-.15.03-.3.05-.45.43-3.96.87-7.92,1.31-11.94.46-4.18.93-8.43,1.41-12.83,15.08,10.71,28.02,23,40.26,36.65.38-.55.75-1.1,1.13-1.65-.02-.03-.04-.05-.06-.08-2.28-2.87-4.41-5.85-6.47-8.88-4.11-6.06-7.92-12.32-12-18.4-2.04-3.04-4.15-6.03-6.39-8.93-3.28-4.23-7.25-7.77-11.28-11.24-.57-.5-1.14-1-1.72-1.49-1.53-1.32-3.06-2.64-4.55-4-2.19-1.99-4.28-4.07-6.34-6.17-5.13-5.23-10.05-10.65-15.54-15.5-.48-.42-1.06-.94-.7-1.55.11-.19.23-.34.36-.46.76-.71,1.75-.27,2.59.02.14.05.27.09.4.12,9.43,2.33,19.06,2.38,28.65,2.68.17,0,.34,0,.5.02.33.01.66-.02.99-.01,4.32.06,8.6-.39,12.82-1.43,1.51-.37,3.02-.82,4.52-1.34-2.29-.99-4.63-1.65-6.97-2.18-1.29-.29-2.58-.54-3.87-.76-1.22-.21-2.44-.41-3.66-.61-12.92-2.13-25.79-4.47-38.5-7.69-.15-.04-.29-.07-.44-.11-8.47-2.16-14.26-7.21-18.67-14.41-.55-.9-.68-1.5-.55-1.91.09-.28.3-.47.59-.61.14-.07.31-.13.48-.18.35-.1.76-.17,1.18-.23,6.03-.94,11.65-2.68,17.02-4.91,2.5-1.04,4.96-2.19,7.34-3.45.8-.42,1.61-.83,2.4-1.28.56-.32,1.11-.67,1.66-1,6.22-3.69,12.11-8.01,17.81-12.68.83-.68,1.66-1.33,2.48-2.02.12-.1.24-.21.36-.31.27-.23.55-.46.81-.7.03-.03.07-.06.11-.09.04-.04.1-.08.14-.12.85-.88,2.14-1.83,1.21-3.13-.76-1.06-2.06-.29-3,.17,0,0,0,0,0,0-5.18,2.54-10.38,5.05-15.49,7.72-1.37.72-2.75,1.42-4.13,2.13-2.92,1.5-5.85,2.98-8.82,4.4-2.18,1.04-4.38,2.04-6.59,3.01-2.22.96-4.46,1.88-6.72,2.74-.84.32-1.68.6-2.5.83-1.65.45-3.26.71-4.82.75-1.55.03-3.05-.16-4.51-.59-2.23-.66-4.35-1.9-6.36-3.82-3.59-3.44-7.22-6.89-10.48-10.58-4.57-5.16-8.36-10.88-10.31-17.86-.15-.54-.35-1.04-.48-1.59-.48-2.09-.95-4.19-1.34-6.29-.38-2.1-.68-4.19-.81-6.26-.18-2.75-.06-5.46.53-8.07.65-2.84,1.88-5.55,3.9-8.09.76-.96,1.61-1.9,2.61-2.81,2.99-2.7,5.99-5.11,9-7.19.04-.03.08-.05.12-.08,1.83-1.26,3.67-2.39,5.52-3.4,11.36-6.19,23.27-7.59,37.04-2.32,19.23,7.36,39.6,9.73,59.73,13.12,2.69.45,5.36.98,8.03,1.55s5.33,1.18,7.99,1.79c.55.13,1.06.31,1.51.53,2.71,1.33,3.76,4.22,2.79,7.13-.1.3-.26.6-.4.91-.11.23-.19.46-.33.69-.58.95-1.22,1.83-1.91,2.68-1.02,1.25-2.15,2.42-3.28,3.57-1.15,1.18-2.31,2.35-3.39,3.6-8.65,9.98-11.73,21.28-10.24,33.57.21,1.76.52,3.53.92,5.33.6,2.7,1.16,5.41,1.75,8.11.59,2.7,1.21,5.4,1.91,8.07.35,1.34.72,2.67,1.12,3.99,1.2,3.97,2.65,7.86,4.54,11.62.1.2.16.43.23.66.08.27.21.51.33.74.05.1.08.23.16.31h0c.15.16.24.32.37.48,4.6,5.42,3.1,10.51-.87,15.78-4.59,6.1-4.52,12.9-2.63,19.5.27.94.58,1.88.92,2.81,2.61,7.21,5.39,14.35,8.3,21.43,33.29-48.55,66.69-97.03,100.21-145.41-3.3-2.6-6.59-5.24-9.95-7.8Z"/>
</svg>